<mxfile host="app.diagrams.net" modified="2024-05-18T00:03:02.756Z" agent="Mozilla/5.0 (Windows NT 10.0; Win64; x64) AppleWebKit/537.36 (KHTML, like Gecko) Chrome/124.0.0.0 Safari/537.36" etag="qr64pOFiosaI7nS8uhYM" version="24.4.4" type="device">
  <diagram name="Page-1" id="DJ-e_S7EiNYbZB_LMY41">
    <mxGraphModel dx="3000" dy="1614" grid="1" gridSize="10" guides="1" tooltips="1" connect="1" arrows="1" fold="1" page="1" pageScale="1" pageWidth="850" pageHeight="1100" math="0" shadow="0">
      <root>
        <mxCell id="0" />
        <mxCell id="1" parent="0" />
        <mxCell id="OUMCvFsGukLSHhm2M6-k-1" value="" style="rounded=0;whiteSpace=wrap;html=1;fillColor=none;" parent="1" vertex="1">
          <mxGeometry x="150" y="100" width="1930" height="1000" as="geometry" />
        </mxCell>
        <mxCell id="OUMCvFsGukLSHhm2M6-k-2" style="edgeStyle=orthogonalEdgeStyle;rounded=0;orthogonalLoop=1;jettySize=auto;html=1;exitX=0.743;exitY=0.766;exitDx=0;exitDy=0;exitPerimeter=0;" parent="1" source="OUMCvFsGukLSHhm2M6-k-3" target="OUMCvFsGukLSHhm2M6-k-35" edge="1">
          <mxGeometry relative="1" as="geometry" />
        </mxCell>
        <mxCell id="OUMCvFsGukLSHhm2M6-k-3" value="" style="rounded=1;whiteSpace=wrap;html=1;perimeterSpacing=10;strokeWidth=0;arcSize=40;fillColor=#000000;" parent="1" vertex="1">
          <mxGeometry x="1527.6599999999999" y="800" width="150" height="20" as="geometry" />
        </mxCell>
        <mxCell id="OUMCvFsGukLSHhm2M6-k-4" value="" style="ellipse;html=1;shape=endState;fillColor=#000000;strokeColor=#000000;" parent="1" vertex="1">
          <mxGeometry x="2017.6599999999999" y="685" width="30" height="30" as="geometry" />
        </mxCell>
        <mxCell id="OUMCvFsGukLSHhm2M6-k-5" style="edgeStyle=orthogonalEdgeStyle;rounded=0;orthogonalLoop=1;jettySize=auto;html=1;exitX=1;exitY=0.5;exitDx=0;exitDy=0;exitPerimeter=0;entryX=0;entryY=0.5;entryDx=0;entryDy=0;" parent="1" source="OUMCvFsGukLSHhm2M6-k-6" target="OUMCvFsGukLSHhm2M6-k-8" edge="1">
          <mxGeometry relative="1" as="geometry" />
        </mxCell>
        <mxCell id="OUMCvFsGukLSHhm2M6-k-6" value="" style="verticalLabelPosition=bottom;verticalAlign=top;html=1;shape=mxgraph.flowchart.on-page_reference;fillColor=#000000;" parent="1" vertex="1">
          <mxGeometry x="190" y="385" width="30" height="30" as="geometry" />
        </mxCell>
        <mxCell id="OUMCvFsGukLSHhm2M6-k-7" style="edgeStyle=orthogonalEdgeStyle;rounded=0;orthogonalLoop=1;jettySize=auto;html=1;exitX=1;exitY=0.5;exitDx=0;exitDy=0;entryX=0;entryY=0.5;entryDx=0;entryDy=0;" parent="1" source="OUMCvFsGukLSHhm2M6-k-8" target="OUMCvFsGukLSHhm2M6-k-18" edge="1">
          <mxGeometry relative="1" as="geometry" />
        </mxCell>
        <mxCell id="OUMCvFsGukLSHhm2M6-k-8" value="Professor - Acessa formulário de justificativa de falta" style="rounded=1;whiteSpace=wrap;html=1;fillColor=#CCE5FF;" parent="1" vertex="1">
          <mxGeometry x="280" y="370" width="120" height="60" as="geometry" />
        </mxCell>
        <mxCell id="OUMCvFsGukLSHhm2M6-k-9" value="Preencher &lt;br&gt;formulário" style="rounded=1;whiteSpace=wrap;html=1;fillColor=#CCE5FF;" parent="1" vertex="1">
          <mxGeometry x="450" y="370" width="120" height="60" as="geometry" />
        </mxCell>
        <mxCell id="OUMCvFsGukLSHhm2M6-k-10" style="edgeStyle=orthogonalEdgeStyle;rounded=0;orthogonalLoop=1;jettySize=auto;html=1;exitX=0.5;exitY=1;exitDx=0;exitDy=0;entryX=0.5;entryY=0;entryDx=0;entryDy=0;" parent="1" source="OUMCvFsGukLSHhm2M6-k-11" target="OUMCvFsGukLSHhm2M6-k-46" edge="1">
          <mxGeometry relative="1" as="geometry">
            <mxPoint x="1000" y="480" as="targetPoint" />
          </mxGeometry>
        </mxCell>
        <mxCell id="OUMCvFsGukLSHhm2M6-k-11" value="Professor - Anexa documento que justifique a falta" style="rounded=1;whiteSpace=wrap;html=1;fillColor=#CCE5FF;" parent="1" vertex="1">
          <mxGeometry x="880" y="370" width="120" height="60" as="geometry" />
        </mxCell>
        <mxCell id="OUMCvFsGukLSHhm2M6-k-12" style="edgeStyle=orthogonalEdgeStyle;rounded=0;orthogonalLoop=1;jettySize=auto;html=1;exitX=0.5;exitY=1;exitDx=0;exitDy=0;entryX=0;entryY=0.5;entryDx=0;entryDy=0;" parent="1" source="OUMCvFsGukLSHhm2M6-k-16" target="OUMCvFsGukLSHhm2M6-k-21" edge="1">
          <mxGeometry relative="1" as="geometry" />
        </mxCell>
        <mxCell id="OUMCvFsGukLSHhm2M6-k-13" value="Não possui documento comprovante" style="edgeLabel;html=1;align=center;verticalAlign=middle;resizable=0;points=[];" parent="OUMCvFsGukLSHhm2M6-k-12" vertex="1" connectable="0">
          <mxGeometry x="0.1521" y="-1" relative="1" as="geometry">
            <mxPoint x="65" y="-1" as="offset" />
          </mxGeometry>
        </mxCell>
        <mxCell id="OUMCvFsGukLSHhm2M6-k-14" style="edgeStyle=orthogonalEdgeStyle;rounded=0;orthogonalLoop=1;jettySize=auto;html=1;exitX=1;exitY=0.5;exitDx=0;exitDy=0;entryX=0;entryY=0.5;entryDx=0;entryDy=0;" parent="1" source="OUMCvFsGukLSHhm2M6-k-16" target="OUMCvFsGukLSHhm2M6-k-11" edge="1">
          <mxGeometry relative="1" as="geometry" />
        </mxCell>
        <mxCell id="OUMCvFsGukLSHhm2M6-k-15" value="Possui documento comprovante" style="edgeLabel;html=1;align=center;verticalAlign=middle;resizable=0;points=[];" parent="OUMCvFsGukLSHhm2M6-k-14" vertex="1" connectable="0">
          <mxGeometry x="-0.1111" y="-3" relative="1" as="geometry">
            <mxPoint x="5" y="-3" as="offset" />
          </mxGeometry>
        </mxCell>
        <mxCell id="OUMCvFsGukLSHhm2M6-k-16" value="" style="rhombus;whiteSpace=wrap;html=1;" parent="1" vertex="1">
          <mxGeometry x="620" y="380" width="35" height="40" as="geometry" />
        </mxCell>
        <mxCell id="OUMCvFsGukLSHhm2M6-k-17" style="edgeStyle=orthogonalEdgeStyle;rounded=0;orthogonalLoop=1;jettySize=auto;html=1;exitX=1;exitY=0.5;exitDx=0;exitDy=0;entryX=0;entryY=0.5;entryDx=0;entryDy=0;" parent="1" source="OUMCvFsGukLSHhm2M6-k-18" target="OUMCvFsGukLSHhm2M6-k-16" edge="1">
          <mxGeometry relative="1" as="geometry" />
        </mxCell>
        <mxCell id="OUMCvFsGukLSHhm2M6-k-18" value="Professor - Preenche&lt;br&gt;formulário" style="rounded=1;whiteSpace=wrap;html=1;fillColor=#CCE5FF;" parent="1" vertex="1">
          <mxGeometry x="450" y="370" width="120" height="60" as="geometry" />
        </mxCell>
        <mxCell id="OUMCvFsGukLSHhm2M6-k-19" style="edgeStyle=orthogonalEdgeStyle;rounded=0;orthogonalLoop=1;jettySize=auto;html=1;exitX=1;exitY=0.5;exitDx=0;exitDy=0;entryX=0;entryY=0.5;entryDx=0;entryDy=0;" parent="1" source="OUMCvFsGukLSHhm2M6-k-20" target="OUMCvFsGukLSHhm2M6-k-4" edge="1">
          <mxGeometry relative="1" as="geometry" />
        </mxCell>
        <mxCell id="OUMCvFsGukLSHhm2M6-k-20" value="Professor - Envia formulário para&lt;br&gt;seu coordenador" style="rounded=1;whiteSpace=wrap;html=1;fillColor=#CCE5FF;arcSize=15;" parent="1" vertex="1">
          <mxGeometry x="1817.6599999999999" y="670" width="120" height="60" as="geometry" />
        </mxCell>
        <mxCell id="OUMCvFsGukLSHhm2M6-k-21" value="Professor - Solicita envio do formulário" style="rounded=1;whiteSpace=wrap;html=1;fillColor=#CCE5FF;" parent="1" vertex="1">
          <mxGeometry x="880" y="585" width="120" height="60" as="geometry" />
        </mxCell>
        <mxCell id="OUMCvFsGukLSHhm2M6-k-22" value="" style="edgeStyle=orthogonalEdgeStyle;rounded=0;orthogonalLoop=1;jettySize=auto;html=1;exitX=1;exitY=0.5;exitDx=0;exitDy=0;entryX=0;entryY=0.5;entryDx=0;entryDy=0;" parent="1" source="OUMCvFsGukLSHhm2M6-k-21" target="OUMCvFsGukLSHhm2M6-k-27" edge="1">
          <mxGeometry relative="1" as="geometry">
            <mxPoint x="1499" y="525" as="targetPoint" />
            <mxPoint x="1390" y="525" as="sourcePoint" />
          </mxGeometry>
        </mxCell>
        <mxCell id="OUMCvFsGukLSHhm2M6-k-23" style="edgeStyle=orthogonalEdgeStyle;rounded=0;orthogonalLoop=1;jettySize=auto;html=1;exitX=1;exitY=0.5;exitDx=0;exitDy=0;entryX=0;entryY=0.5;entryDx=0;entryDy=0;" parent="1" source="OUMCvFsGukLSHhm2M6-k-27" target="OUMCvFsGukLSHhm2M6-k-29" edge="1">
          <mxGeometry relative="1" as="geometry">
            <mxPoint x="1682.5" y="730" as="targetPoint" />
          </mxGeometry>
        </mxCell>
        <mxCell id="OUMCvFsGukLSHhm2M6-k-24" value="Todos os campos preenchidos" style="edgeLabel;html=1;align=center;verticalAlign=middle;resizable=0;points=[];" parent="OUMCvFsGukLSHhm2M6-k-23" vertex="1" connectable="0">
          <mxGeometry x="-0.2508" y="2" relative="1" as="geometry">
            <mxPoint x="27" y="2" as="offset" />
          </mxGeometry>
        </mxCell>
        <mxCell id="OUMCvFsGukLSHhm2M6-k-25" style="edgeStyle=orthogonalEdgeStyle;rounded=0;orthogonalLoop=1;jettySize=auto;html=1;entryX=0.5;entryY=0;entryDx=0;entryDy=0;exitX=0.5;exitY=0;exitDx=0;exitDy=0;" parent="1" source="OUMCvFsGukLSHhm2M6-k-27" target="OUMCvFsGukLSHhm2M6-k-18" edge="1">
          <mxGeometry relative="1" as="geometry">
            <mxPoint x="1215" y="300" as="targetPoint" />
            <Array as="points">
              <mxPoint x="1320" y="595" />
              <mxPoint x="1320" y="270" />
              <mxPoint x="510" y="270" />
            </Array>
            <mxPoint x="1400" y="540" as="sourcePoint" />
          </mxGeometry>
        </mxCell>
        <mxCell id="OUMCvFsGukLSHhm2M6-k-26" value="Há campos não preenchidos" style="edgeLabel;html=1;align=center;verticalAlign=middle;resizable=0;points=[];" parent="OUMCvFsGukLSHhm2M6-k-25" vertex="1" connectable="0">
          <mxGeometry x="0.0305" relative="1" as="geometry">
            <mxPoint x="318" y="160" as="offset" />
          </mxGeometry>
        </mxCell>
        <mxCell id="OUMCvFsGukLSHhm2M6-k-27" value="" style="rhombus;whiteSpace=wrap;html=1;" parent="1" vertex="1">
          <mxGeometry x="1303" y="595" width="35" height="40" as="geometry" />
        </mxCell>
        <mxCell id="OUMCvFsGukLSHhm2M6-k-28" style="edgeStyle=orthogonalEdgeStyle;rounded=0;orthogonalLoop=1;jettySize=auto;html=1;exitX=0.5;exitY=1;exitDx=0;exitDy=0;entryX=0.5;entryY=0;entryDx=0;entryDy=0;" parent="1" source="OUMCvFsGukLSHhm2M6-k-29" target="OUMCvFsGukLSHhm2M6-k-32" edge="1">
          <mxGeometry relative="1" as="geometry" />
        </mxCell>
        <mxCell id="OUMCvFsGukLSHhm2M6-k-29" value="Professor - Revisa dados preenchidos" style="rounded=1;whiteSpace=wrap;html=1;fillColor=#CCE5FF;arcSize=15;" parent="1" vertex="1">
          <mxGeometry x="1542.6599999999999" y="585" width="120" height="60" as="geometry" />
        </mxCell>
        <mxCell id="OUMCvFsGukLSHhm2M6-k-30" style="edgeStyle=orthogonalEdgeStyle;rounded=0;orthogonalLoop=1;jettySize=auto;html=1;exitX=1;exitY=0.5;exitDx=0;exitDy=0;entryX=0;entryY=0.5;entryDx=0;entryDy=0;" parent="1" source="OUMCvFsGukLSHhm2M6-k-32" target="OUMCvFsGukLSHhm2M6-k-20" edge="1">
          <mxGeometry relative="1" as="geometry">
            <mxPoint x="1800.1599999999999" y="710" as="targetPoint" />
          </mxGeometry>
        </mxCell>
        <mxCell id="OUMCvFsGukLSHhm2M6-k-31" value="Os dados estão corretos" style="edgeLabel;html=1;align=center;verticalAlign=middle;resizable=0;points=[];" parent="OUMCvFsGukLSHhm2M6-k-30" vertex="1" connectable="0">
          <mxGeometry x="-0.2434" y="-1" relative="1" as="geometry">
            <mxPoint x="23" y="-1" as="offset" />
          </mxGeometry>
        </mxCell>
        <mxCell id="OUMCvFsGukLSHhm2M6-k-32" value="" style="rhombus;whiteSpace=wrap;html=1;" parent="1" vertex="1">
          <mxGeometry x="1585.1599999999999" y="680" width="35" height="40" as="geometry" />
        </mxCell>
        <mxCell id="OUMCvFsGukLSHhm2M6-k-33" value="Professor - Corrige campos preenchidos incorretamente" style="rounded=1;whiteSpace=wrap;html=1;fillColor=#CCE5FF;arcSize=15;" parent="1" vertex="1">
          <mxGeometry x="1457.6599999999999" y="880" width="120" height="60" as="geometry" />
        </mxCell>
        <mxCell id="OUMCvFsGukLSHhm2M6-k-34" style="edgeStyle=orthogonalEdgeStyle;rounded=0;orthogonalLoop=1;jettySize=auto;html=1;exitX=0.5;exitY=1;exitDx=0;exitDy=0;entryX=0.739;entryY=0.293;entryDx=0;entryDy=0;entryPerimeter=0;" parent="1" source="OUMCvFsGukLSHhm2M6-k-35" target="OUMCvFsGukLSHhm2M6-k-37" edge="1">
          <mxGeometry relative="1" as="geometry" />
        </mxCell>
        <mxCell id="OUMCvFsGukLSHhm2M6-k-35" value="Professor - Altera o documento anexado" style="rounded=1;whiteSpace=wrap;html=1;fillColor=#CCE5FF;arcSize=15;" parent="1" vertex="1">
          <mxGeometry x="1627.6599999999999" y="880" width="120" height="60" as="geometry" />
        </mxCell>
        <mxCell id="OUMCvFsGukLSHhm2M6-k-36" style="edgeStyle=orthogonalEdgeStyle;rounded=0;orthogonalLoop=1;jettySize=auto;html=1;exitX=0.253;exitY=0.793;exitDx=0;exitDy=0;exitPerimeter=0;" parent="1" source="OUMCvFsGukLSHhm2M6-k-3" target="OUMCvFsGukLSHhm2M6-k-33" edge="1">
          <mxGeometry relative="1" as="geometry" />
        </mxCell>
        <mxCell id="OUMCvFsGukLSHhm2M6-k-37" value="" style="rounded=1;whiteSpace=wrap;html=1;perimeterSpacing=10;strokeWidth=0;arcSize=40;fillColor=#000000;" parent="1" vertex="1">
          <mxGeometry x="1526.4099999999999" y="1010" width="151.25" height="20" as="geometry" />
        </mxCell>
        <mxCell id="OUMCvFsGukLSHhm2M6-k-38" style="edgeStyle=orthogonalEdgeStyle;rounded=0;orthogonalLoop=1;jettySize=auto;html=1;exitX=0.5;exitY=1;exitDx=0;exitDy=0;entryX=0.262;entryY=0.316;entryDx=0;entryDy=0;entryPerimeter=0;" parent="1" source="OUMCvFsGukLSHhm2M6-k-33" target="OUMCvFsGukLSHhm2M6-k-37" edge="1">
          <mxGeometry relative="1" as="geometry" />
        </mxCell>
        <mxCell id="OUMCvFsGukLSHhm2M6-k-39" style="edgeStyle=orthogonalEdgeStyle;rounded=0;orthogonalLoop=1;jettySize=auto;html=1;exitX=0.5;exitY=1;exitDx=0;exitDy=0;entryX=0.501;entryY=0.296;entryDx=0;entryDy=0;entryPerimeter=0;" parent="1" source="OUMCvFsGukLSHhm2M6-k-32" target="OUMCvFsGukLSHhm2M6-k-3" edge="1">
          <mxGeometry relative="1" as="geometry" />
        </mxCell>
        <mxCell id="OUMCvFsGukLSHhm2M6-k-40" value="Há dados incorretos" style="edgeLabel;html=1;align=center;verticalAlign=middle;resizable=0;points=[];" parent="OUMCvFsGukLSHhm2M6-k-39" vertex="1" connectable="0">
          <mxGeometry x="-0.2476" y="-1" relative="1" as="geometry">
            <mxPoint x="1" y="9" as="offset" />
          </mxGeometry>
        </mxCell>
        <mxCell id="OUMCvFsGukLSHhm2M6-k-41" style="edgeStyle=orthogonalEdgeStyle;rounded=0;orthogonalLoop=1;jettySize=auto;html=1;entryX=0.5;entryY=1;entryDx=0;entryDy=0;exitX=0.511;exitY=0.747;exitDx=0;exitDy=0;exitPerimeter=0;" parent="1" source="OUMCvFsGukLSHhm2M6-k-37" target="OUMCvFsGukLSHhm2M6-k-21" edge="1">
          <mxGeometry relative="1" as="geometry">
            <mxPoint x="1415" y="1080" as="sourcePoint" />
            <mxPoint x="1080" y="760" as="targetPoint" />
            <Array as="points">
              <mxPoint x="1604" y="1060" />
              <mxPoint x="940" y="1060" />
            </Array>
          </mxGeometry>
        </mxCell>
        <mxCell id="OUMCvFsGukLSHhm2M6-k-42" style="edgeStyle=orthogonalEdgeStyle;rounded=0;orthogonalLoop=1;jettySize=auto;html=1;exitX=0.5;exitY=1;exitDx=0;exitDy=0;entryX=0.5;entryY=0;entryDx=0;entryDy=0;" parent="1" source="OUMCvFsGukLSHhm2M6-k-46" target="OUMCvFsGukLSHhm2M6-k-21" edge="1">
          <mxGeometry relative="1" as="geometry" />
        </mxCell>
        <mxCell id="OUMCvFsGukLSHhm2M6-k-43" value="Documento anexado corretamente" style="edgeLabel;html=1;align=center;verticalAlign=middle;resizable=0;points=[];" parent="OUMCvFsGukLSHhm2M6-k-42" vertex="1" connectable="0">
          <mxGeometry x="-0.1339" y="1" relative="1" as="geometry">
            <mxPoint as="offset" />
          </mxGeometry>
        </mxCell>
        <mxCell id="j6-Tu3_vuhcTQHFzejnz-3" style="edgeStyle=orthogonalEdgeStyle;rounded=0;orthogonalLoop=1;jettySize=auto;html=1;exitX=1;exitY=0.5;exitDx=0;exitDy=0;" parent="1" source="OUMCvFsGukLSHhm2M6-k-46" target="j6-Tu3_vuhcTQHFzejnz-2" edge="1">
          <mxGeometry relative="1" as="geometry" />
        </mxCell>
        <mxCell id="j6-Tu3_vuhcTQHFzejnz-4" value="Erro ao anexar documento" style="edgeLabel;html=1;align=center;verticalAlign=middle;resizable=0;points=[];" parent="j6-Tu3_vuhcTQHFzejnz-3" vertex="1" connectable="0">
          <mxGeometry x="-0.1818" y="1" relative="1" as="geometry">
            <mxPoint x="24" y="1" as="offset" />
          </mxGeometry>
        </mxCell>
        <mxCell id="OUMCvFsGukLSHhm2M6-k-46" value="" style="rhombus;whiteSpace=wrap;html=1;" parent="1" vertex="1">
          <mxGeometry x="922.5" y="470" width="35" height="40" as="geometry" />
        </mxCell>
        <mxCell id="OUMCvFsGukLSHhm2M6-k-47" value="&lt;font face=&quot;Helvetica&quot; style=&quot;font-size: 40px;&quot;&gt;&lt;b&gt;&lt;font style=&quot;font-size: 40px;&quot;&gt;Professor - Enviar&amp;nbsp;&lt;/font&gt;&lt;font style=&quot;font-size: 40px;&quot;&gt;Formulário &lt;/font&gt;&lt;font style=&quot;font-size: 40px;&quot;&gt;de Justificativa de Falta&lt;/font&gt;&lt;/b&gt;&lt;/font&gt;" style="text;html=1;align=center;verticalAlign=middle;whiteSpace=wrap;rounded=0;" parent="1" vertex="1">
          <mxGeometry x="150" y="140" width="1930" height="30" as="geometry" />
        </mxCell>
        <mxCell id="j6-Tu3_vuhcTQHFzejnz-2" value="Sistema - Exibe mensagem de erro" style="rounded=1;whiteSpace=wrap;html=1;fillColor=#CCE5FF;" parent="1" vertex="1">
          <mxGeometry x="1150" y="460" width="120" height="60" as="geometry" />
        </mxCell>
        <mxCell id="j6-Tu3_vuhcTQHFzejnz-5" style="edgeStyle=orthogonalEdgeStyle;rounded=0;orthogonalLoop=1;jettySize=auto;html=1;exitX=0.5;exitY=0;exitDx=0;exitDy=0;entryX=0.5;entryY=0;entryDx=0;entryDy=0;" parent="1" source="j6-Tu3_vuhcTQHFzejnz-2" target="OUMCvFsGukLSHhm2M6-k-11" edge="1">
          <mxGeometry relative="1" as="geometry">
            <mxPoint x="933" y="370" as="targetPoint" />
            <Array as="points">
              <mxPoint x="1210" y="320" />
              <mxPoint x="940" y="320" />
            </Array>
          </mxGeometry>
        </mxCell>
      </root>
    </mxGraphModel>
  </diagram>
</mxfile>
